<svg width="461" height="367" viewBox="0 0 461 367" fill="none" xmlns="http://www.w3.org/2000/svg">
<path d="M235.553 314.291C333.83 314.291 413.499 300.133 413.499 282.669C413.499 265.204 333.83 251.047 235.553 251.047C137.276 251.047 57.6067 265.204 57.6067 282.669C57.6067 300.133 137.276 314.291 235.553 314.291Z" fill="#ECF2EE"/>
<path opacity="0.5" d="M235.553 314.291C333.83 314.291 413.499 300.133 413.499 282.669C413.499 265.204 333.83 251.047 235.553 251.047C137.276 251.047 57.6067 265.204 57.6067 282.669C57.6067 300.133 137.276 314.291 235.553 314.291Z" fill="white"/>
<path d="M303.467 81.96C300.24 85.9798 298.049 90.7314 297.087 95.7969C295.39 104.403 291.214 120.574 291.739 126.183C292.265 131.791 293.583 134.918 298.645 135.832C303.707 136.745 306.593 132.308 307.644 128.526C308.31 126.037 308.83 123.511 309.202 120.962L310.244 100.409C310.244 100.409 308.4 88.0575 307.524 85.4562C306.648 82.8548 303.467 81.96 303.467 81.96Z" fill="#ECF2EE" stroke="#263238" stroke-linecap="round" stroke-linejoin="round"/>
<path d="M371.271 77.8459C371.271 77.8459 373.115 77.44 374.867 83.8418C376.618 90.2437 378.73 99.4314 382.187 110.759C385.645 122.087 386.318 125.823 386.05 128.351C385.783 130.878 383.792 133.682 376.83 133.682C369.869 133.682 366.688 131.016 364.844 125.02C363 119.024 363.268 100.501 363.139 98.1031C363.01 95.7047 369.132 76.6467 371.271 77.8459Z" fill="#ECF2EE" stroke="#263238" stroke-linecap="round" stroke-linejoin="round"/>
<path d="M323.714 276.82C323.714 276.82 319.187 281.617 316.522 284.689C313.858 287.761 312.927 289.615 317.315 291.478C321.704 293.342 328.508 290.556 330.509 287.484C332.51 284.412 336.77 280.953 336.77 280.953C336.77 280.953 339.028 278.425 336.097 274.828C333.165 271.23 325.042 275.354 323.714 276.82Z" fill="white" stroke="#263238" stroke-linecap="round" stroke-linejoin="round"/>
<path d="M350.886 280.824C350.886 280.824 355.413 281.488 357.81 283.591C360.207 285.694 368.606 290.39 374.194 288.12C379.781 285.851 376.195 282.124 373.133 279.459C371.414 277.933 369.538 276.594 367.537 275.464C367.537 275.464 358.612 274.8 354.629 276.793C350.646 278.785 350.886 280.824 350.886 280.824Z" fill="white" stroke="#263238" stroke-linecap="round" stroke-linejoin="round"/>
<path d="M318.514 218.844C318.514 218.844 320.653 234.839 319.584 239.636C318.514 244.433 315.453 247.237 317.74 251.905C319.432 255.514 320.671 259.319 321.428 263.233C321.695 264.828 320.229 265.225 321.428 266.922C322.301 268.017 323.018 269.228 323.557 270.52C323.557 270.926 321.962 273.186 321.962 273.721C321.962 274.256 322.765 277.586 322.765 277.586C322.765 277.586 327.024 276.664 330.085 277.854C332.303 278.809 334.403 280.016 336.346 281.451C336.346 281.451 339.112 280.381 340.08 278.785C340.602 277.949 340.918 277 341.002 276.018C341.131 275.483 342.468 272.679 342.339 270.548C342.21 268.417 340.734 263.887 340.734 261.222C340.734 258.556 342.735 255.622 342.735 251.36C342.735 247.099 340.734 219.775 340.734 219.775L342.578 219.102C342.578 219.102 345.51 235.365 345.51 242.966C345.51 250.567 343.251 260.022 344.717 261.886C346.183 263.749 347.908 265.354 347.908 265.751C347.908 266.147 346.174 269.081 346.58 270.548C347.213 272.474 347.745 274.433 348.175 276.414C348.175 277.217 349.641 280.28 350.839 280.815C352.038 281.35 352.683 280.141 359.764 278.684C366.845 277.226 370.828 277.614 370.155 275.483C369.482 273.352 368.828 270.548 368.026 270.013C367.223 269.478 368.293 269.09 368.026 267.088C367.758 265.087 366.292 262.956 364.965 259.755C363.637 256.554 365.49 253.095 366.025 249.755C366.56 246.416 365.757 241.453 364.43 236.029C363.102 230.605 364.291 217.239 364.291 217.239L364.965 212.045C364.965 212.045 344.579 213.89 332.058 213.77L318.606 213.641C318.606 213.641 317.721 214.582 318.514 218.844Z" fill="#263238" stroke="#263238" stroke-linecap="round" stroke-linejoin="round"/>
<path d="M370.201 163.136C370.201 163.136 372.045 187.397 374.461 200.035C375.851 207.168 376.732 214.39 377.098 221.648H367.408C367.002 221.648 368.072 176.734 368.33 172.758C368.681 169.503 369.307 166.285 370.201 163.136Z" fill="#ECF2EE" stroke="#263238" stroke-linecap="round" stroke-linejoin="round"/>
<path d="M330.076 64.4333C330.076 64.4333 318.754 72.0251 312.899 74.691C307.044 77.357 303.836 80.8254 303.439 82.0707C303.043 83.316 309.829 102.457 309.829 102.457C309.829 102.457 309.432 165.765 309.432 176.429C309.432 187.093 306.104 219.204 306.5 219.204C306.897 219.204 317.564 226.14 332.206 226.537C346.847 226.934 351.568 224.803 356.178 224.803C360.788 224.803 370.008 224.803 370.164 223.475C370.321 222.146 370.432 192.683 370.561 178.957C370.69 165.23 370.828 155.498 370.561 153.238C370.294 150.978 366.569 102.19 366.569 102.19C366.569 102.19 369.335 94.0627 370.967 87.5317C372.599 81.0007 372.562 80.1981 370.561 77.2739C368.56 74.3497 353.55 66.3797 350.885 65.3558C347.611 64.2091 344.202 63.4928 340.743 63.2249C338.236 63.0496 330.076 64.4333 330.076 64.4333Z" fill="#ECF2EE" stroke="#263238" stroke-linecap="round" stroke-linejoin="round"/>
<path d="M305.062 118.628C305.062 118.628 306.795 122.622 308.925 124.356C311.055 126.09 315.988 126.893 317.048 129.559C318.108 132.225 317.048 134.217 315.849 137.418C314.651 140.619 315.324 145.951 310.926 146.643C306.528 147.335 305.2 145.72 301.595 143.174C297.99 140.628 295.741 140.241 293.611 136.376C291.481 132.511 290.845 127.151 292.689 124.255" fill="#ECF2EE"/>
<path d="M305.062 118.628C305.062 118.628 306.795 122.622 308.925 124.356C311.055 126.09 315.988 126.893 317.048 129.559C318.108 132.225 317.048 134.217 315.849 137.418C314.651 140.619 315.324 145.951 310.926 146.643C306.528 147.335 305.2 145.72 301.595 143.174C297.99 140.628 295.741 140.241 293.611 136.376C291.481 132.511 290.845 127.151 292.689 124.255" stroke="#263238" stroke-linecap="round" stroke-linejoin="round"/>
<path d="M329.578 59.1845L329.154 70.3832C329.154 70.3832 328.094 71.979 334.483 72.3757C338.59 72.5911 342.708 72.2811 346.737 71.4532L345.676 59.3321C345.676 59.3321 339.01 62.0995 335.147 60.7988C333.335 60.1168 331.473 59.5771 329.578 59.1845Z" fill="white" stroke="#263238" stroke-linecap="round" stroke-linejoin="round"/>
<path d="M327.043 56.3895C327.043 56.3895 326.121 69.3039 325.448 73.1782C324.774 77.0526 324.913 79.4417 326.37 80.3734C327.826 81.3051 336.355 84.6444 340.753 84.3769C345.151 84.1094 351.817 80.1059 352.342 78.9067C352.868 77.7075 348.359 58.8986 348.359 58.8986L347.686 59.7011C347.686 59.7011 348.885 69.5622 348.488 69.8481C348.092 70.1341 332.639 69.0456 329.836 68.9257C327.033 68.8058 327.845 68.6582 327.845 68.6582L327.706 57.3304L327.043 56.3895Z" fill="white" stroke="#263238" stroke-linecap="round" stroke-linejoin="round"/>
<path d="M326.619 71.7576C326.619 71.7576 341.177 73.907 349.908 72.2189" stroke="#263238" stroke-width="0.5" stroke-miterlimit="10"/>
<path d="M326.01 75.1338C326.01 75.1338 336.152 79.4232 349.908 75.5858" stroke="#263238" stroke-width="0.5" stroke-miterlimit="10"/>
<path d="M327.079 79.1189C327.079 79.1189 336.733 84.3307 349.908 78.8052" stroke="#263238" stroke-width="0.5" stroke-miterlimit="10"/>
<path d="M350.627 42.7924C350.959 38.6967 351.236 34.4903 350.222 32.3963C348.627 29.0662 343.823 25.2011 336.899 25.4686C329.975 25.7361 324.111 28.402 324.249 36.9256C324.249 36.9256 324.544 39.4623 324.885 42.571C324.251 43.9285 324.029 45.4427 324.249 46.925C324.464 48.3474 324.962 49.712 325.715 50.9377C325.779 51.731 325.826 52.4137 325.844 52.921C325.973 56.5186 328.37 60.7804 330.509 62.2471C332.648 63.7138 336.631 65.983 339.167 65.983C341.702 65.983 346.22 63.5846 348.387 60.1162C350.065 57.3488 350.231 55.5039 350.231 52.2476H350.36C350.741 50.5374 350.967 48.796 351.033 47.0449C351.087 45.6157 350.951 44.1855 350.627 42.7924Z" fill="white" stroke="#263238" stroke-linecap="round" stroke-linejoin="round"/>
<path d="M325.466 43.595C325.466 43.595 325.862 46.925 326.526 46.7867C327.19 46.6483 327.992 41.8607 327.992 41.8607L325.466 43.595Z" fill="#263238" stroke="#263238" stroke-linecap="round" stroke-linejoin="round"/>
<path d="M348.092 43.2167C348.092 43.2167 348.092 46.9527 349.014 47.4877C349.936 48.0228 350.609 44.2868 350.609 44.2868C349.854 43.7585 348.996 43.394 348.092 43.2167Z" fill="#263238" stroke="#263238" stroke-linecap="round" stroke-linejoin="round"/>
<path d="M350.222 32.3963C348.626 29.0662 343.823 25.2011 336.899 25.4686C329.974 25.7361 324.11 28.402 324.249 36.9256C324.249 36.9256 324.544 39.4623 324.885 42.571C324.465 43.4723 324.224 44.4466 324.175 45.4399C326.766 43.3643 331.616 40.394 337.701 40.929C342.436 41.4689 346.988 43.0742 351.014 45.6244C350.972 44.6705 350.843 43.7225 350.627 42.7924C350.959 38.6967 351.282 34.5179 350.222 32.3963Z" fill="#ECF2EE" stroke="#263238" stroke-linecap="round" stroke-linejoin="round"/>
<path d="M335.968 45.9841L335.165 50.7809C335.165 50.7809 333.699 50.9101 334.243 51.8418C334.787 52.7734 337.572 53.8435 338.909 53.4468C340.246 53.0502 341.573 51.7126 341.435 51.1776C341.394 51.0175 341.311 50.8715 341.194 50.7546C341.077 50.6378 340.931 50.5545 340.771 50.5134L339.038 45.5782" stroke="#263238" stroke-linecap="round" stroke-linejoin="round"/>
<path d="M334.501 55.8544C337.059 56.4066 339.714 56.3147 342.228 55.5869" stroke="#263238" stroke-linecap="round" stroke-linejoin="round"/>
<path d="M333.035 45.7904C333.035 46.4915 332.676 47.0542 332.233 47.0542C331.791 47.0542 331.44 46.4915 331.44 45.7904C331.44 45.0893 331.8 44.5266 332.233 44.5266C332.667 44.5266 333.035 45.0616 333.035 45.7904Z" fill="#263238"/>
<path d="M343.159 45.7258C343.159 46.4269 342.799 46.9896 342.366 46.9896C341.933 46.9896 341.564 46.4269 341.564 45.7258C341.564 45.0248 341.924 44.4621 342.366 44.4621C342.809 44.4621 343.159 45.0617 343.159 45.7258Z" fill="#263238"/>
<path d="M329.974 43.8625C329.974 43.8625 330.896 41.5932 333.838 42.3958" stroke="#263238" stroke-linecap="round" stroke-linejoin="round"/>
<path d="M339.831 42.5249C339.831 42.5249 342.597 40.5231 344.625 43.9916" stroke="#263238" stroke-linecap="round" stroke-linejoin="round"/>
<path d="M314.651 135.287C314.651 135.287 322.783 137.132 324.645 136.754C327.087 136.298 329.322 135.085 331.035 133.286C333.441 130.887 335.433 128.886 335.433 130.887C335.441 131.677 335.292 132.461 334.995 133.193C334.697 133.924 334.257 134.589 333.699 135.149C332.777 136.219 331.035 137.418 330.638 139.153C330.242 140.887 330.777 142.215 332.907 143.018C335.036 143.82 341.693 145.01 341.693 146.707C341.693 148.405 341.158 152.445 338.761 153.774C336.364 155.102 330.509 154.17 330.509 154.17C330.509 154.17 335.304 156.836 334.373 157.509C333.441 158.183 330.638 157.242 329.311 156.043C327.983 154.844 327.467 154.705 323.576 151.91C319.685 149.115 316.384 145.776 314.522 144.715C313.513 144.242 312.58 143.62 311.756 142.87C310.686 141.948 310.29 140.103 311.083 137.944C311.353 137.305 311.753 136.729 312.258 136.252C312.763 135.776 313.361 135.41 314.015 135.177L314.651 135.287Z" fill="white" stroke="#263238" stroke-linecap="round" stroke-linejoin="round"/>
<path d="M377.928 120.094C377.928 120.094 368.339 121.939 367.408 122.622C366.477 123.305 367.408 126.09 367.408 126.09C367.408 126.09 359.276 129.956 356.215 132.086C353.154 134.217 355.947 138.488 356.086 139.014C356.086 139.014 358.483 146.883 362.475 149.549C366.467 152.215 370.598 151.274 374.599 147.012C378.601 142.75 381.127 136.865 382.99 134.882C384.852 132.898 386.853 131.016 386.189 126.579C385.525 122.142 382.058 121.644 382.058 121.644" fill="#ECF2EE"/>
<path d="M377.928 120.094C377.928 120.094 368.339 121.939 367.408 122.622C366.477 123.305 367.408 126.09 367.408 126.09C367.408 126.09 359.276 129.956 356.215 132.086C353.154 134.217 355.947 138.488 356.086 139.014C356.086 139.014 358.483 146.883 362.475 149.549C366.467 152.215 370.598 151.274 374.599 147.012C378.601 142.75 381.127 136.865 382.99 134.882C384.852 132.898 386.853 131.016 386.189 126.579C385.525 122.142 382.058 121.644 382.058 121.644" stroke="#263238" stroke-linecap="round" stroke-linejoin="round"/>
<path d="M358.344 137.686C358.344 137.686 352.222 139.282 350.489 139.42C348.756 139.558 348.488 139.817 347.428 139.014C346.368 138.212 341.426 135.324 339.13 132.622C336.834 129.919 335.129 129.421 335.396 130.887C335.663 132.354 335.129 133.415 336.733 134.485C338.337 135.555 339.923 138.488 339.923 139.688C339.923 140.887 339.794 141.283 336.465 142.455C333.137 143.626 325.54 145.121 326.323 146.053C327.107 146.984 328.721 147.252 330.454 147.123C332.187 146.993 339.379 145.923 339.904 146.32C340.078 146.498 340.208 146.713 340.284 146.95C340.359 147.187 340.378 147.438 340.34 147.683C340.301 147.929 340.206 148.162 340.062 148.364C339.917 148.566 339.728 148.732 339.508 148.848C338.309 149.65 334.05 149.65 331.514 149.918C328.979 150.185 328.85 150.84 329.919 151.384C331.636 152.025 333.463 152.323 335.294 152.261C337.424 152.261 339.904 152.049 338.844 152.713C337.784 153.377 336.309 153.515 333.644 153.912C330.98 154.309 330.048 153.119 330.454 154.179C330.86 155.24 334.05 155.249 338.042 155.102C341.676 154.916 345.205 153.819 348.304 151.91C350.968 150.305 360.686 147.907 361.359 147.381C362.032 146.855 363.083 143.774 362.42 140.047C361.756 136.321 358.344 137.686 358.344 137.686Z" fill="white" stroke="#263238" stroke-linecap="round" stroke-linejoin="round"/>
<path d="M368.874 122.087C371.469 119.938 374.281 118.065 377.264 116.497" stroke="#263238" stroke-linecap="round" stroke-linejoin="round"/>
<path d="M332.104 147.196C332.104 147.196 339.683 146.329 340.448 146.219C341.214 146.108 342.615 146.975 341.96 147.953C341.306 148.931 340.983 148.709 338.272 149.253C335.582 149.663 332.862 149.845 330.14 149.798" fill="white"/>
<path d="M332.104 147.196C332.104 147.196 339.683 146.329 340.448 146.219C341.214 146.108 342.615 146.975 341.96 147.953C341.306 148.931 340.983 148.709 338.272 149.253C335.582 149.663 332.862 149.845 330.14 149.798" stroke="#263238" stroke-linecap="round" stroke-linejoin="round"/>
<path d="M332.971 152.399C332.971 152.399 341.417 151.855 341.205 152.51C340.993 153.165 340.449 154.023 337.415 154.244C334.382 154.465 330.961 154.678 328.094 153.266" fill="white"/>
<path d="M332.971 152.399C332.971 152.399 341.417 151.855 341.205 152.51C340.993 153.165 340.449 154.023 337.415 154.244C334.382 154.465 330.961 154.678 328.094 153.266" stroke="#263238" stroke-linecap="round" stroke-linejoin="round"/>
<path d="M248.497 270.252C248.497 270.252 249.936 271.682 244.201 275.188C238.466 278.693 233.681 280.289 233.681 282.364C233.681 284.44 240.052 286.506 246.589 284.91C253.126 283.314 255.809 282.844 259.497 282.208C263.185 281.571 264.282 278.379 264.282 273.905C264.282 269.431 254.564 268.371 253.448 268.168C252.333 267.965 249.299 268.5 248.497 270.252Z" fill="white" stroke="#263238" stroke-linecap="round" stroke-linejoin="round"/>
<path d="M262.834 273.915C260.421 277.533 257.467 280.759 254.075 283.48C249.134 287.17 248.497 288.895 251.051 289.855C253.605 290.814 260.926 291.128 265.868 289.218C270.81 287.309 273.198 284.44 274.627 283.158C276.056 281.875 276.858 282.678 276.858 277.577C276.858 272.476 271.437 270.723 266.983 271.046C262.53 271.369 262.834 273.915 262.834 273.915Z" fill="white" stroke="#263238" stroke-linecap="round" stroke-linejoin="round"/>
<path d="M243.408 169.99C243.408 169.99 244.846 199.002 245.326 207.451C245.805 215.901 249.309 247.615 249.936 255.106C250.563 262.596 250.572 264.828 250.572 264.828C250.572 264.828 247.704 266.904 247.704 267.384C247.704 267.863 247.382 272.319 247.382 272.319C249.498 273.485 251.745 274.395 254.075 275.031C256.636 275.608 259.273 275.77 261.885 275.51C261.885 275.51 267.14 277.263 271.603 278.536C276.065 279.809 277.817 279.173 277.817 279.173C277.817 279.173 279.089 272.798 279.403 270.723C279.716 268.647 285.138 246.656 285.138 236.592C285.138 226.528 283.865 221.925 281.957 216.03C280.048 210.136 284.501 189.085 286.096 181.438C287.011 177.172 287.703 172.861 288.171 168.524C288.171 168.524 274.47 175.571 243.408 169.99Z" fill="#263238" stroke="#263238" stroke-linecap="round" stroke-linejoin="round"/>
<path d="M261.249 179.741C261.249 179.741 260.447 200.957 260.447 209.066C260.447 217.174 262.521 227.081 263.471 236.647C264.42 246.213 263.793 261.83 262.678 264.542C261.562 267.254 260.769 268.232 260.926 270.28C261.083 272.328 261.249 275.215 261.249 275.215" stroke="white" stroke-linecap="round" stroke-linejoin="round"/>
<path d="M258.695 56.3341C258.695 56.3341 257.773 53.4653 256.298 54.5814C254.822 55.6976 255.827 57.7731 257.1 59.8487C258.372 61.9242 259.801 62.3946 259.967 61.2785C260.133 60.1623 258.695 56.3341 258.695 56.3341Z" fill="white" stroke="#263238" stroke-linecap="round" stroke-linejoin="round"/>
<path d="M258.695 57.6163L257.1 53.004C257.1 53.004 250.415 50.292 252.49 43.5949C254.564 36.8979 270.496 30.8465 274.793 30.8465C279.089 30.8465 287.378 36.5842 288.816 43.2813C290.255 49.9783 285.47 56.0297 285.47 56.0297C285.47 56.0297 283.395 61.9242 281.782 61.6105C280.168 61.2969 281.136 56.6662 279.071 53.004C277.006 49.3418 275.724 47.4693 273.493 48.3917C271.262 49.3142 262.023 52.0816 261.23 53.3269C260.437 54.5722 259.017 58.4096 258.695 57.6163Z" fill="#263238" stroke="#263238" stroke-linecap="round" stroke-linejoin="round"/>
<path d="M291.038 123.286L291.831 127.428L281.957 142.732L284.188 146.237C288.873 143.112 293.152 139.418 296.93 135.241C303.301 128.231 303.937 127.271 303.937 124.402C303.937 121.534 301.715 116.589 301.715 116.589C301.715 116.589 297.253 123.286 291.038 123.286Z" fill="white" stroke="#263238" stroke-linecap="round" stroke-linejoin="round"/>
<path d="M237.028 114.043C237.028 114.043 233.838 121.69 234.483 124.08C235.128 126.469 246.109 140.499 246.109 140.499L248.018 135.241C248.018 135.241 243.878 126.635 243.878 123.766C243.878 120.897 245.316 115.316 245.316 115.316L237.028 114.043Z" stroke="#263238" stroke-linecap="round" stroke-linejoin="round"/>
<path d="M265.232 76.1024C265.232 76.1024 251.531 81.3604 248.977 82.163C246.423 82.9655 244.671 83.436 244.514 84.2293C244.358 85.0226 236.714 104.634 235.294 107.346C233.874 110.058 231.948 113.084 231.948 113.084C233.803 114.245 235.718 115.31 237.682 116.276C239.687 117.152 241.767 117.844 243.897 118.342L244.819 129.347L235.414 170.784C235.414 170.784 254.214 176.042 266.762 175.571C274.752 175.299 282.651 173.793 290.181 171.107C292.578 170.304 296.239 168.874 296.239 168.874L284.253 123.766L285.175 117.069L285.811 123.609C285.811 123.609 292.182 125.039 295.842 124.08C299.502 123.12 304.14 119.467 304.14 119.467L292.348 82.6519L270.367 76.5913L265.232 76.1024Z" fill="#ECF2EE" stroke="#263238" stroke-linecap="round" stroke-linejoin="round"/>
<path d="M280.712 79.3956L270.487 76.5821L265.232 76.1024L260.502 77.9473C260.41 80.4564 260.29 84.7274 260.29 89.8471C260.29 98.1492 261.212 105.474 263.637 104.034C266.062 102.595 277.467 87.1442 279.403 82.8179C279.926 81.7123 280.364 80.5682 280.712 79.3956Z" fill="#ECF2EE" stroke="#263238" stroke-linecap="round" stroke-linejoin="round"/>
<path d="M285.304 117.069C284.981 116.755 283.552 103.038 283.552 103.038" stroke="#263238" stroke-linecap="round" stroke-linejoin="round"/>
<path d="M243.878 118.342C243.878 118.342 242.762 112.927 243.085 110.851C243.408 108.776 245.63 96.5072 245.63 96.5072" stroke="#263238" stroke-linecap="round" stroke-linejoin="round"/>
<path d="M249.3 141.302C249.3 141.302 241.97 143.691 241.97 144.171C241.97 144.65 241.804 146.873 241.804 146.873L249.3 143.368V141.302Z" stroke="#263238" stroke-linecap="round" stroke-linejoin="round"/>
<path d="M268.735 142.418L268.413 144.484L284.345 148.626L285.138 147.04L268.735 142.418Z" stroke="#263238" stroke-linecap="round" stroke-linejoin="round"/>
<path d="M273.991 110.722C273.773 110.722 273.564 110.636 273.41 110.482C273.256 110.328 273.17 110.119 273.17 109.901C273.17 107.134 274.544 100.455 275.881 93.9981C276.941 88.86 277.946 83.9986 277.946 82.4766C277.987 81.6378 277.849 80.7999 277.54 80.0188C277.232 79.2378 276.76 78.5315 276.157 77.9473C274.249 76.1762 270.856 75.4567 266.08 75.8072C256.113 76.5452 255.385 98.8687 255.375 99.0809C255.371 99.2954 255.282 99.4995 255.129 99.6495C254.975 99.7995 254.769 99.8834 254.555 99.8834C254.447 99.8798 254.341 99.855 254.243 99.8104C254.145 99.7658 254.056 99.7023 253.983 99.6235C253.909 99.5447 253.852 99.4521 253.814 99.3511C253.776 99.2501 253.758 99.1426 253.762 99.0347C253.762 98.0569 254.546 75.0508 265.988 74.1283C271.243 73.7501 275.051 74.608 277.301 76.7112C278.067 77.4497 278.669 78.3415 279.068 79.3286C279.467 80.3156 279.653 81.3757 279.615 82.4397C279.615 84.1278 278.647 88.8416 277.522 94.2933C276.259 100.372 274.839 107.263 274.839 109.864C274.844 109.978 274.826 110.091 274.785 110.197C274.744 110.302 274.682 110.399 274.602 110.479C274.523 110.56 274.427 110.623 274.322 110.665C274.217 110.707 274.104 110.726 273.991 110.722Z" fill="#263238" stroke="#263238" stroke-linecap="round" stroke-linejoin="round"/>
<path d="M263.471 71.1672C263.471 71.1672 263.471 75.7795 263.314 76.702C263.157 77.6245 263.314 81.6464 263.314 87.0704C263.314 92.4945 264.236 96.1474 265.545 94.8744C266.854 93.6014 275.263 82.2829 275.742 80.0505C276.024 78.7958 276.184 77.5169 276.222 76.2315L276.858 69.8481C276.858 69.8481 266.983 72.717 262.834 71.444" fill="white"/>
<path d="M263.471 71.1672C263.471 71.1672 263.471 75.7795 263.314 76.702C263.157 77.6245 263.314 81.6464 263.314 87.0704C263.314 92.4945 264.236 96.1474 265.545 94.8744C266.854 93.6014 275.263 82.2829 275.742 80.0505C276.024 78.7958 276.184 77.5169 276.222 76.2315L276.858 69.8481C276.858 69.8481 266.983 72.717 262.834 71.444" stroke="#263238" stroke-linecap="round" stroke-linejoin="round"/>
<path d="M279.882 61.6013C280.712 67.1384 280.925 72.7506 280.518 78.3348C279.882 88.0575 278.73 92.6144 275.908 94.0166C273.087 95.4187 276.729 97.0053 281.025 97.1622C285.322 97.319 291.702 96.6825 292.818 83.9341C293.933 71.1857 284.695 62.8928 283.893 61.2969C283.688 60.9263 283.38 60.6224 283.008 60.4213C282.635 60.2202 282.212 60.1303 281.79 60.1624C281.368 60.1944 280.963 60.3471 280.625 60.6021C280.287 60.8572 280.029 61.204 279.882 61.6013Z" fill="#263238" stroke="#263238" stroke-linecap="round" stroke-linejoin="round"/>
<path d="M248.82 110.243H248.755C248.644 110.236 248.534 110.206 248.435 110.156C248.335 110.105 248.247 110.034 248.176 109.947C248.105 109.86 248.052 109.76 248.022 109.652C247.992 109.544 247.984 109.431 247.999 109.32C247.999 108.868 248.921 98.1953 254.555 98.1953C260.188 98.1953 260.317 108.462 260.317 108.905C260.317 109.123 260.231 109.332 260.077 109.486C259.923 109.64 259.714 109.726 259.497 109.726C259.279 109.726 259.07 109.64 258.917 109.486C258.763 109.332 258.676 109.123 258.676 108.905C258.676 108.813 258.556 99.8465 254.564 99.8465C251.134 99.8465 249.853 106.774 249.65 109.449C249.64 109.663 249.549 109.865 249.394 110.013C249.24 110.16 249.034 110.243 248.82 110.243Z" fill="#263238"/>
<path d="M248.82 108.785C248.82 108.785 248.82 116.755 249.134 118.342C249.447 119.928 253.439 123.286 258.215 125.362" stroke="#263238" stroke-width="2" stroke-linecap="round" stroke-linejoin="round"/>
<path d="M259.174 107.789C259.174 107.789 259.488 115.759 257.902 119.264C256.316 122.77 251.531 124.209 249.456 125.002" stroke="#263238" stroke-width="2" stroke-linecap="round" stroke-linejoin="round"/>
<path d="M260.447 125.675C260.418 125.315 260.254 124.978 259.988 124.733C259.723 124.488 259.374 124.351 259.013 124.351C258.651 124.351 258.303 124.488 258.037 124.733C257.772 124.978 257.608 125.315 257.579 125.675C257.563 125.873 257.588 126.073 257.653 126.26C257.718 126.448 257.821 126.62 257.956 126.766C258.091 126.912 258.254 127.029 258.436 127.109C258.618 127.188 258.814 127.23 259.013 127.23C259.211 127.23 259.408 127.188 259.59 127.109C259.772 127.029 259.935 126.912 260.07 126.766C260.204 126.62 260.307 126.448 260.372 126.26C260.437 126.073 260.462 125.873 260.447 125.675Z" fill="white" stroke="#263238" stroke-linecap="round" stroke-linejoin="round"/>
<path d="M250.572 125.362C250.574 125.077 250.491 124.798 250.334 124.56C250.177 124.322 249.953 124.136 249.69 124.026C249.428 123.915 249.138 123.886 248.859 123.94C248.579 123.994 248.322 124.131 248.12 124.332C247.918 124.533 247.78 124.789 247.724 125.068C247.667 125.348 247.695 125.638 247.804 125.901C247.912 126.165 248.097 126.39 248.334 126.548C248.57 126.707 248.849 126.792 249.134 126.792C249.513 126.792 249.878 126.641 250.147 126.373C250.417 126.105 250.569 125.742 250.572 125.362Z" fill="white" stroke="#263238" stroke-linecap="round" stroke-linejoin="round"/>
<path d="M278.767 112.927C278.769 111.948 278.48 110.991 277.938 110.177C277.395 109.362 276.624 108.727 275.72 108.352C274.817 107.976 273.822 107.877 272.863 108.068C271.903 108.258 271.022 108.73 270.33 109.422C269.639 110.114 269.168 110.995 268.977 111.955C268.787 112.915 268.886 113.91 269.261 114.814C269.636 115.718 270.271 116.49 271.085 117.033C271.899 117.575 272.856 117.864 273.834 117.862C275.141 117.86 276.395 117.339 277.319 116.414C278.244 115.489 278.764 114.235 278.767 112.927Z" fill="white" stroke="#263238" stroke-linecap="round" stroke-linejoin="round"/>
<path d="M276.535 112.927C276.535 112.39 276.376 111.865 276.078 111.419C275.78 110.973 275.356 110.626 274.86 110.421C274.364 110.216 273.819 110.162 273.292 110.268C272.766 110.373 272.283 110.632 271.905 111.013C271.526 111.393 271.269 111.877 271.165 112.404C271.061 112.93 271.116 113.476 271.323 113.971C271.53 114.467 271.878 114.89 272.325 115.186C272.772 115.483 273.297 115.641 273.834 115.639C274.551 115.637 275.238 115.35 275.745 114.841C276.251 114.333 276.535 113.645 276.535 112.927Z" fill="white" stroke="#263238" stroke-linecap="round" stroke-linejoin="round"/>
<path d="M276.536 45.1816C276.536 45.1816 262.678 50.5964 260.926 51.5189C260.172 51.9748 259.371 52.349 258.538 52.635C258.538 52.635 259.331 64.7469 259.654 67.9386C259.976 71.1304 265.066 74.156 269.528 73.9992C273.991 73.8424 277.651 71.444 278.453 70.0142C279.255 68.5844 281.477 64.2765 281.477 64.2765C281.477 64.2765 286.733 63.354 287.009 58.6956C287.286 54.0372 285.737 55.0058 283.985 55.9836C282.234 56.9614 281.275 57.5794 281.275 57.5794C281.615 55.8885 281.33 54.1313 280.472 52.635C279.089 50.2828 276.858 47.4139 276.536 45.1816Z" fill="white" stroke="#263238" stroke-linecap="round" stroke-linejoin="round"/>
<path d="M265.232 60.0055C265.232 60.0055 266.504 61.915 267.62 61.7582" stroke="#263238" stroke-linecap="round" stroke-linejoin="round"/>
<path d="M264.752 62.8743C264.752 62.8743 267.454 65.4296 272.128 63.354" stroke="#263238" stroke-linecap="round" stroke-linejoin="round"/>
<path d="M271.603 56.1773C271.603 56.1773 274.867 54.7475 276.701 57.2934" stroke="#263238" stroke-width="1.5" stroke-linecap="round" stroke-linejoin="round"/>
<path d="M265.232 55.8637C265.232 55.8637 262.678 54.2678 260.769 55.5408" stroke="#263238" stroke-width="1.5" stroke-linecap="round" stroke-linejoin="round"/>
<path d="M267.103 55.264C267.105 56.1552 266.843 57.0268 266.349 57.7685C265.855 58.5102 265.153 59.0886 264.33 59.4304C263.508 59.7723 262.602 59.8622 261.729 59.6888C260.855 59.5154 260.052 59.0865 259.423 58.4564C258.793 57.8263 258.364 57.0233 258.191 56.1492C258.017 55.2751 258.107 54.3692 258.449 53.5463C258.791 52.7234 259.369 52.0204 260.11 51.5265C260.851 51.0325 261.723 50.7698 262.613 50.7717C263.803 50.7741 264.944 51.2482 265.786 52.0901C266.627 52.9321 267.101 54.0733 267.103 55.264Z" stroke="#263238" stroke-linecap="round" stroke-linejoin="round"/>
<path d="M278.306 56.5278C278.307 57.4185 278.045 58.2898 277.552 59.0313C277.059 59.7728 276.356 60.3512 275.534 60.6933C274.712 61.0354 273.808 61.1259 272.934 60.9532C272.061 60.7806 271.258 60.3526 270.628 59.7234C269.998 59.0942 269.568 58.2921 269.394 57.4186C269.22 56.5452 269.308 55.6396 269.648 54.8165C269.989 53.9934 270.565 53.2898 271.306 52.7947C272.046 52.2997 272.916 52.0354 273.806 52.0354C274.997 52.0379 276.139 52.5117 276.982 53.3533C277.825 54.195 278.301 55.3363 278.306 56.5278V56.5278Z" stroke="#263238" stroke-linecap="round" stroke-linejoin="round"/>
<path d="M267.103 55.264C267.425 55.155 267.77 55.1343 268.102 55.2041C268.435 55.2738 268.743 55.4315 268.993 55.6607" stroke="#263238" stroke-linecap="round" stroke-linejoin="round"/>
<path d="M278.462 57.2381L282.879 56.6108" stroke="#263238" stroke-linecap="round" stroke-linejoin="round"/>
<path d="M91.1489 271.415C89.9277 274.01 88.425 276.463 86.668 278.73C84.0034 282.005 83.3304 284.338 86.2254 286.368C89.1205 288.397 94.3944 288.084 97.0497 284.809C99.7051 281.534 103.983 272.503 103.983 272.503C103.983 272.503 94.6525 269.699 91.1489 271.415Z" fill="white" stroke="#263238" stroke-linecap="round" stroke-linejoin="round"/>
<path d="M123.622 273.435C123.622 273.435 128.232 279.514 130.998 282.66C133.764 285.805 138.992 287.327 141.785 287.17C144.579 287.014 148.59 286.082 145.879 281.101C143.168 276.119 137.507 271.286 137.507 271.286C137.507 271.286 131.588 271.286 127.522 270.815C123.456 270.345 123.419 272.503 123.622 273.435Z" fill="white" stroke="#263238" stroke-linecap="round" stroke-linejoin="round"/>
<path d="M93.6937 158.939C93.6937 158.939 91.8497 180.156 92.4767 195.081C93.1036 210.007 90.3561 239.793 89.4341 247.08C88.5121 254.368 90.2731 266.397 90.3561 269.044C90.4391 271.692 90.5313 273.103 90.5313 273.103C90.5313 273.103 91.8958 272.18 96.9207 273.103C99.1892 273.588 101.492 273.896 103.808 274.025C105.881 270.517 107.595 266.808 108.925 262.956C110.428 257.975 109.58 252.809 109.46 250.18C109.34 247.551 108.907 244.728 109.202 244.258C109.497 243.787 115.656 199.242 115.988 189.427C116.365 182.773 117.353 176.168 118.938 169.695C118.938 169.695 121.879 183.403 122.11 188.698C122.34 193.993 121.584 237.145 121.962 245.89C122.34 254.635 121.667 256.96 120.671 259.137C119.676 261.314 120.035 262.402 120.736 264.118C121.437 265.834 123.64 273.463 123.64 273.463C123.64 273.463 134.879 274.09 136.401 273.306C137.922 272.522 138.512 271.756 138.484 271.286C138.457 270.815 143.897 259.598 143.38 254.93C142.864 250.263 142.274 251.038 141.748 242.625C141.223 234.212 144.662 163.293 144.653 159.603C144.643 155.914 144.026 163.026 121.105 158.681C98.1839 154.336 94.3483 155.978 93.6937 158.939Z" fill="#ECF2EE" stroke="#263238" stroke-linecap="round" stroke-linejoin="round"/>
<path d="M124.286 267.374C124.286 267.374 131.486 261.139 137.489 259.58L124.286 267.374Z" fill="white"/>
<path d="M124.286 267.374C124.286 267.374 131.486 261.139 137.489 259.58" stroke="#263238" stroke-linecap="round" stroke-linejoin="round"/>
<path d="M94.8833 264.404C94.8833 264.404 103.882 260.041 106.482 258.952L94.8833 264.404Z" fill="white"/>
<path d="M94.8833 264.404C94.8833 264.404 103.882 260.041 106.482 258.952" stroke="#263238" stroke-linecap="round" stroke-linejoin="round"/>
<path d="M109.986 43.6687C109.986 43.6687 107.57 38.217 105.781 40.0896C103.993 41.9622 105.348 44.4436 107.81 47.4047C110.271 50.3658 112.217 48.4932 111.7 47.2479C111.184 46.0026 109.986 43.6687 109.986 43.6687Z" fill="white" stroke="#263238" stroke-linecap="round" stroke-linejoin="round"/>
<path d="M133.367 40.7076C133.367 40.7076 135.783 35.4127 137.756 37.9402C139.729 40.4678 135.488 46.6667 134.446 47.7552C133.404 48.8437 132.731 40.5877 132.731 40.5877L133.367 40.7076Z" fill="white" stroke="#263238" stroke-linecap="round" stroke-linejoin="round"/>
<path d="M80.924 108.942C80.924 108.942 80.251 118.6 79.4304 121.091C77.7552 126.961 76.972 133.049 77.1069 139.152C77.4296 146.468 80.2971 162.362 80.3524 167.186C80.4077 172.011 78.9048 173.108 80.5183 174.354C82.1318 175.599 85.5617 179.344 86.8064 179.344C88.0511 179.344 89.9504 179.962 89.9043 179.03C89.8582 178.099 89.2497 178.246 88.7241 177.001C88.0532 175.186 87.5049 173.327 87.083 171.439C87.4616 170.063 87.9204 168.711 88.4568 167.389C88.4568 167.389 89.5632 171.282 89.7752 172.536C89.9873 173.791 91.7206 174.243 91.6192 171.909C91.5178 169.575 91.4717 168.634 91.361 166.144C91.2504 163.653 89.2866 161.476 88.4568 160.221C87.627 158.967 86.9723 158.201 86.9447 157.731C86.917 157.26 89.6277 140.758 89.7107 134.992C89.7937 129.227 89.8766 124.55 90.2915 123.461C90.7064 122.373 92.7717 112.558 92.7717 112.558L80.924 108.942Z" fill="white" stroke="#263238" stroke-linecap="round" stroke-linejoin="round"/>
<path d="M157.93 109.403C157.93 109.403 158.593 119.117 159.423 121.681C161.078 127.628 161.858 133.784 161.737 139.955C161.415 147.252 158.529 162.887 158.474 167.712C158.418 172.536 159.93 173.754 158.317 174.861C156.703 175.968 153.264 179.399 152.02 179.298C150.775 179.197 148.885 179.639 148.922 178.708C148.959 177.776 149.576 177.988 150.102 176.789C150.783 175.011 151.335 173.186 151.752 171.328C151.37 169.91 150.909 168.515 150.369 167.149C150.369 167.149 149.263 170.95 149.051 172.177C148.839 173.403 147.115 173.717 147.207 171.393C147.299 169.068 147.345 168.136 147.456 165.655C147.566 163.173 149.53 161.162 150.369 159.991C151.208 158.819 151.854 158.091 151.881 157.629C151.909 157.168 149.198 140.416 149.115 134.642C149.032 128.867 148.959 124.19 148.534 123.065C148.11 121.939 146.054 111.94 146.054 111.94L157.93 109.403Z" fill="white" stroke="#263238" stroke-linecap="round" stroke-linejoin="round"/>
<path d="M114.973 61.5829C114.973 61.5829 106.122 65.7893 100.775 68.1231C95.4271 70.457 88.7057 73.2612 88.7887 74.359C88.8717 75.4567 83.0907 97.2544 81.2651 101.774C79.4396 106.295 77.7339 109.874 77.7339 109.874C77.7339 109.874 84.2709 114.246 88.5121 115.169C91.2454 115.748 94.0199 116.112 96.8101 116.257L91.7667 161.126C91.7667 161.126 101.909 165.175 117.795 165.332C127.652 165.405 137.504 164.884 147.299 163.773C147.299 163.773 148.792 126.875 148.636 123.268C148.527 121.291 148.598 119.309 148.848 117.346C151.268 117.874 153.782 117.769 156.15 117.041C158.232 116.266 160.273 115.382 162.263 114.394C162.263 114.394 154.527 83.5467 153.255 79.3403C151.983 75.1338 152.573 74.5158 151.466 74.0453C150.36 73.5749 138.134 68.28 134.142 65.9461C130.15 63.6123 128.61 63.6031 125.115 62.5146C121.621 61.4261 116.771 60.024 114.973 61.5829Z" fill="#ECF2EE" stroke="#263238" stroke-linecap="round" stroke-linejoin="round"/>
<path d="M148.866 117.346L146.893 89.681" stroke="#263238" stroke-linecap="round" stroke-linejoin="round"/>
<path d="M97.1789 131.837L114.448 131.367C114.448 131.367 113.683 153.026 113.157 155.351C112.632 157.676 109.128 159.244 104.601 159.087C100.074 158.93 97.3357 156.753 96.8193 155.665" stroke="#263238" stroke-linecap="round" stroke-linejoin="round"/>
<path d="M96.2107 134.642L114.42 134.485" stroke="#263238" stroke-linecap="round" stroke-linejoin="round"/>
<path d="M144.155 159.096C142.459 159.567 138.411 159.567 137.526 157.076C136.641 154.585 137.222 132.308 137.222 132.308L146.11 132.612" stroke="#263238" stroke-linecap="round" stroke-linejoin="round"/>
<path d="M137.147 134.171L145.602 135.417" stroke="#263238" stroke-linecap="round" stroke-linejoin="round"/>
<path d="M96.8101 116.257C96.8101 116.257 97.437 94.9206 97.1881 89.312" stroke="#263238" stroke-linecap="round" stroke-linejoin="round"/>
<path d="M112.337 51.1407C112.337 51.1407 113.683 64.0551 113.738 65.4757C113.793 66.8963 115.37 70.7706 116.864 72.8C118.357 74.8294 122.534 81.3697 124.194 80.1151C125.853 78.8606 130.528 71.8591 130.98 67.9663C131.431 64.0735 131.653 54.8858 131.653 54.8858C131.653 54.8858 125.595 55.1995 121.003 53.6405C116.412 52.0816 112.337 51.1407 112.337 51.1407Z" fill="white" stroke="#263238" stroke-linecap="round" stroke-linejoin="round"/>
<path d="M105.883 31.8243L109.322 42.737C109.322 42.737 110.612 50.8362 112.936 54.1018C115.259 57.3673 123.401 62.0533 127.098 61.1124C130.795 60.1715 135.156 56.7492 134.99 53.0132C134.824 49.2773 134.068 38.3738 134.169 34.1674C134.271 29.961 133.247 21.3913 130.703 19.0575C128.158 16.7237 119.639 15.3123 113.526 17.8122C107.413 20.3121 103.264 24.9705 105.883 31.8243Z" fill="#263238" stroke="#263238" stroke-linecap="round" stroke-linejoin="round"/>
<path d="M109.515 43.6687C109.515 43.6687 109.211 43.8255 110.013 40.7076C110.815 37.5897 113.231 36.0308 113.471 34.481C113.71 32.9313 110.428 32.4516 110.788 30.1178C111.147 27.784 114.356 26.0682 121.169 25.2841C127.983 24.5 132.519 28.5588 132.298 30.579C132.077 32.5992 131.468 32.9221 132.464 34.3242C133.46 35.7264 133.884 38.3738 133.958 39.9328C134.031 41.4917 134.88 47.091 133.404 48.8068C131.929 50.5226 130.823 50.209 129.357 48.8068C127.891 47.4047 127.347 45.5413 124.083 45.5413C120.819 45.5413 119.777 46.7866 119.206 48.032C118.634 49.2773 118.081 50.7993 116.218 50.7993C114.356 50.7993 113.028 49.0836 111.7 47.211C110.891 46.082 110.161 44.8984 109.515 43.6687Z" fill="white" stroke="#263238" stroke-linecap="round" stroke-linejoin="round"/>
<path d="M123.548 36.0308C123.548 36.0308 126.563 44.4436 126.434 45.0708C126.305 45.6981 124.83 47.5615 123.106 47.4047C121.381 47.2479 120.524 45.2277 120.524 45.2277" stroke="#263238" stroke-linecap="round" stroke-linejoin="round"/>
<path d="M124.396 34.9146C124.314 34.633 124.296 34.3364 124.344 34.047C124.393 33.7576 124.506 33.4829 124.675 33.2434C124.844 33.0038 125.066 32.8057 125.322 32.6638C125.579 32.5219 125.865 32.4399 126.157 32.4239C127.121 32.3772 128.083 32.5337 128.982 32.8834C129.881 33.233 130.697 33.7679 131.376 34.4534" stroke="#263238" stroke-width="2" stroke-linecap="round" stroke-linejoin="round"/>
<path d="M119.86 33.9921C119.415 33.6611 118.902 33.4332 118.359 33.3247C117.815 33.2162 117.254 33.2299 116.716 33.3649C114.872 33.8353 112.65 36.6396 112.678 37.11" stroke="#263238" stroke-width="2" stroke-linecap="round" stroke-linejoin="round"/>
<path d="M119.261 38.5306C119.261 39.3055 118.938 39.9328 118.459 39.9328C117.979 39.9328 117.537 39.3055 117.537 38.5306C117.537 37.7558 117.859 37.1285 118.33 37.1285C118.8 37.1285 119.224 37.7558 119.261 38.5306Z" fill="#263238"/>
<path d="M128.269 38.0602C128.269 38.835 127.946 39.4623 127.476 39.4623C127.005 39.4623 126.554 38.835 126.554 38.0602C126.554 37.2853 126.876 36.658 127.347 36.658C127.817 36.658 128.232 37.2853 128.269 38.0602Z" fill="#263238"/>
<path d="M120.266 50.8362C120.266 50.8362 123.281 52.2384 127.863 50.209" stroke="white" stroke-width="2" stroke-linecap="round" stroke-linejoin="round"/>
<path d="M109.174 64.4333C109.174 64.4333 113.784 80.318 118.735 90.7603C123.686 101.203 127.614 108.518 127.614 108.518C127.614 108.518 135.073 83.436 135.036 75.3091C134.999 67.1822 134.953 66.2782 134.953 66.2782" stroke="#263238" stroke-linecap="round" stroke-linejoin="round"/>
<path d="M133.137 124.356H123.631L122.939 108.472H132.436L133.137 124.356Z" fill="white" stroke="#263238" stroke-linecap="round" stroke-linejoin="round"/>
<path d="M202.969 278.269C202.969 278.269 207.948 282.318 211.525 283.407C215.102 284.495 216.974 285.123 216.2 286.838C215.425 288.554 212.926 289.172 205.615 289.329C198.304 289.486 196.893 287.927 194.09 287.143C191.287 286.359 187.396 287.143 186.152 285.593C184.907 284.043 185.368 281.691 185.368 279.2C185.368 276.71 196.118 275.621 198.921 276.553C200.328 276.978 201.685 277.553 202.969 278.269Z" fill="white" stroke="#263238" stroke-linecap="round" stroke-linejoin="round"/>
<path d="M188.798 281.387C188.798 281.387 193.472 286.368 197.363 288.545C201.254 290.722 203.43 292.29 202.499 293.378C201.568 294.467 198.608 295.869 190.817 295.094C183.026 294.319 181.477 292.594 177.743 289.947C174.009 287.299 172.294 287.613 171.049 286.211C169.805 284.809 169.805 281.691 169.805 281.691L188.798 281.387Z" fill="white" stroke="#263238" stroke-linecap="round" stroke-linejoin="round"/>
<path d="M212.152 166.107C212.152 166.107 209.386 203.18 208.261 209.877C207.137 216.575 206.076 220.32 206.233 224.987C206.39 229.655 207.791 243.058 204.988 251.01C202.185 258.962 202.222 268.61 202.499 271.415C202.775 274.219 203.744 277.955 203.587 278.582C203.43 279.209 198.921 281.691 195.648 282.318C193.591 282.696 191.507 282.903 189.416 282.936C186.248 284.055 182.958 284.789 179.615 285.122C174.94 285.436 168.551 284.034 168.551 284.034C168.551 284.034 168.551 272.503 167.924 265.022C167.297 257.541 165.158 245.558 167.767 236.518C170.376 227.478 169.796 222.681 169.611 219.692C169.427 216.704 169.611 203.337 169.454 202.867C169.298 202.396 168.366 163.459 168.366 163.459C168.366 163.459 185.331 165.95 196.699 164.861C208.068 163.773 211.027 163.773 211.027 163.773C211.027 163.773 213.554 160.969 212.152 166.107Z" fill="#263238" stroke="#263238" stroke-linecap="round" stroke-linejoin="round"/>
<path d="M190.199 280.759C190.191 278.238 189.881 275.726 189.277 273.278C188.355 270.169 188.18 259.109 188.65 254.589C189.121 250.069 191.416 238.704 191.416 232.312C191.416 225.919 192.043 216.113 192.043 216.113" stroke="white" stroke-linecap="round" stroke-linejoin="round"/>
<path d="M222.423 212.682L204.684 212.525C203.909 212.525 203.909 200.69 203.909 200.69L222.423 212.682Z" fill="white" stroke="#263238" stroke-linecap="round" stroke-linejoin="round"/>
<path d="M184.907 168.293C184.907 168.293 202.655 169.382 212.622 167.666L209.192 83.8603C209.192 83.8603 206.86 79.9675 200.627 77.7813C194.394 75.5951 186.926 78.7038 184.28 81.6741C181.634 84.6444 183.505 167.979 183.505 167.979L184.907 168.293Z" fill="#ECF2EE" stroke="#263238" stroke-linecap="round" stroke-linejoin="round"/>
<path d="M185.682 77.7813C185.682 77.7813 168.09 86.6646 165.444 88.2235C162.798 89.7825 162.678 95.3818 162.678 98.0385C162.678 100.695 163.452 218.604 163.452 218.604C170.111 219.039 176.796 218.356 183.229 216.584C189.574 214.923 195.544 212.068 200.821 208.171L197.861 144.77L194.542 89.1552C194.542 89.1552 192.532 73.7317 185.682 77.7813Z" fill="white" stroke="#263238" stroke-linecap="round" stroke-linejoin="round"/>
<path d="M190.974 72.0159C190.974 72.0159 186.926 72.4864 185.211 74.7833C184.206 76.1385 183.468 77.6724 183.035 79.3034L181.477 93.3247L186.77 92.0794L184.123 98.306C184.123 98.306 186.77 106.101 189.729 112.641C192.689 119.181 197.05 132.575 197.05 132.575L195.021 90.6773C195.021 90.6773 195.021 78.5285 194.099 75.9179C193.177 73.3074 192.219 72.0159 190.974 72.0159Z" fill="white" stroke="#263238" stroke-linecap="round" stroke-linejoin="round"/>
<path d="M201.098 80.5856L204.214 207.544L222.423 212.682L219.777 115.953C219.777 115.953 220.247 91.0463 218.689 87.5963C217.131 84.1463 203.126 77.1633 201.724 77.3477C200.323 77.5322 201.098 80.5856 201.098 80.5856Z" fill="white" stroke="#263238" stroke-linecap="round" stroke-linejoin="round"/>
<path d="M201.097 74.2021C202.231 74.4786 203.291 74.9979 204.205 75.7241C205.119 76.4503 205.864 77.3662 206.39 78.4086C207.948 81.8309 211.995 92.43 211.995 92.43L206.86 93.048L212.309 96.9408L202.656 133.24L201.568 93.952L200.646 77.7536C200.646 77.7536 199.539 75.1338 201.097 74.2021Z" fill="white" stroke="#263238" stroke-linecap="round" stroke-linejoin="round"/>
<path d="M189.729 66.721C189.729 66.721 190.356 71.241 189.416 73.7317C188.475 76.2223 192.375 84.0171 193.933 88.8416C195.492 93.666 197.05 97.568 197.981 97.0976C198.912 96.6271 202.185 78.4086 202.029 76.0655C201.872 73.7225 203.43 66.721 203.43 66.721C203.43 66.721 194.865 69.2116 189.729 66.721Z" fill="white" stroke="#263238" stroke-linecap="round" stroke-linejoin="round"/>
<path d="M178.794 61.9703C183.698 61.9703 187.673 57.8156 187.673 52.6904C187.673 47.5652 183.698 43.4105 178.794 43.4105C173.89 43.4105 169.915 47.5652 169.915 52.6904C169.915 57.8156 173.89 61.9703 178.794 61.9703Z" fill="#263238" stroke="#263238" stroke-linecap="round" stroke-linejoin="round"/>
<path d="M183.349 57.0536C183.349 57.0536 181.791 53.004 179.919 54.563C178.047 56.1219 179.919 59.5443 181.321 61.5737C182.722 63.6031 185.368 62.6622 185.064 60.6512C184.812 59.324 184.222 58.0846 183.349 57.0536Z" fill="white" stroke="#263238" stroke-linecap="round" stroke-linejoin="round"/>
<path d="M207.45 54.5353C207.45 54.5353 208.234 50.6425 209.294 53.29C209.763 54.3271 209.98 55.4608 209.925 56.5979C209.871 57.735 209.547 58.8429 208.981 59.8302C208.059 61.3892 208.206 61.2324 207.893 59.8302C207.648 58.0748 207.5 56.3071 207.45 54.5353Z" fill="white" stroke="#263238" stroke-linecap="round" stroke-linejoin="round"/>
<path d="M181.164 49.554C181.164 49.554 184.123 63.8798 185.995 67.3113C187.867 70.7429 194.09 76.5359 199.696 74.1652C205.302 71.7945 208.418 67.4682 208.418 62.1733C208.418 56.8783 209.193 50.1813 208.261 44.4067C207.791 41.7773 206.439 39.387 204.427 37.6309C202.415 35.8748 199.865 34.858 197.197 34.7486C192.209 34.5917 184.428 37.396 182.87 42.3865C182.062 44.7123 181.49 47.1136 181.164 49.554Z" fill="white" stroke="#263238" stroke-linecap="round" stroke-linejoin="round"/>
<path d="M181.321 54.849C181.321 54.849 190.043 51.4174 195.649 47.211C201.254 43.0046 202.969 39.8959 202.969 39.8959C202.969 39.8959 205.615 47.0542 206.703 49.3972C207.791 51.7403 208.723 54.3785 208.723 54.3785C208.723 54.3785 210.437 51.4174 210.437 45.1539C210.437 38.8904 208.723 33.9368 202.139 30.6621C195.556 27.3873 184.861 29.4167 180.011 34.0936C175.162 38.7705 176.121 46.3992 177.365 49.3603C178.34 51.4151 179.68 53.275 181.321 54.849Z" fill="#263238" stroke="#263238" stroke-linecap="round" stroke-linejoin="round"/>
<path d="M200.627 49.0836C200.627 49.0836 199.705 49.2404 199.705 52.0447C199.705 54.849 200.627 59.5166 200.48 60.1439C200.332 60.7712 198.636 62.6345 197.529 61.546" stroke="#263238" stroke-linecap="round" stroke-linejoin="round"/>
<path d="M193.62 64.3503C193.62 64.3503 197.667 66.066 202.84 62.9481" stroke="#263238" stroke-linecap="round" stroke-linejoin="round"/>
<path d="M201.254 48.7515C201.254 48.7515 204.536 47.4969 206.703 49.3787" stroke="#263238" stroke-linecap="round" stroke-linejoin="round"/>
<path d="M195.805 49.3972C194.38 48.9737 192.875 48.8941 191.413 49.1651C189.952 49.4361 188.575 50.0499 187.396 50.9562" stroke="#263238" stroke-linecap="round" stroke-linejoin="round"/>
<path d="M193.62 53.908C193.62 54.8305 193.242 55.6238 192.772 55.6238C192.302 55.6238 191.914 54.8582 191.914 53.908C191.914 52.9579 192.292 52.2015 192.772 52.2015C193.251 52.2015 193.62 52.9671 193.62 53.908Z" fill="#263238"/>
<path d="M203.762 53.29C203.762 54.2124 203.375 55.0058 202.905 55.0058C202.434 55.0058 202.047 54.2401 202.047 53.29C202.047 52.3399 202.434 51.5742 202.905 51.5742C203.375 51.5742 203.762 52.3399 203.762 53.29Z" fill="#263238"/>
<path d="M213.71 116.414L210.944 111.894C210.161 110.649 206.583 111.119 204.868 111.119C203.977 111.212 203.12 111.51 202.363 111.99C201.606 112.47 200.971 113.119 200.507 113.886C199.889 115.132 197.087 117.161 198.175 118.406C199.263 119.652 202.222 118.868 202.692 119.181C203.163 119.495 207.053 122.142 208.455 122.613C209.2 122.887 209.997 122.991 210.788 122.917L213.71 116.414Z" stroke="#263238" stroke-linecap="round" stroke-linejoin="round"/>
<path d="M217.915 86.6646C219.481 87.3877 220.882 88.4236 222.033 89.7085C223.184 90.9934 224.061 92.5003 224.609 94.1365C226.323 99.5882 232.077 135.887 230.832 139.337C229.587 142.787 226.48 145.407 221.031 143.543C215.582 141.68 207.201 132.788 207.201 132.788L213.738 116.432L218.874 119.08L217.786 104.44" fill="white"/>
<path d="M217.915 86.6646C219.481 87.3877 220.882 88.4236 222.033 89.7085C223.184 90.9934 224.061 92.5003 224.609 94.1365C226.323 99.5882 232.077 135.887 230.832 139.337C229.587 142.787 226.48 145.407 221.031 143.543C215.582 141.68 207.201 132.788 207.201 132.788L213.738 116.432L218.874 119.08L217.786 104.44" stroke="#263238" stroke-linecap="round" stroke-linejoin="round"/>
<path d="M218.846 119.061C218.846 119.061 227.098 123.895 227.882 125.611" stroke="#263238" stroke-linecap="round" stroke-linejoin="round"/>
<path d="M208.409 97.2544H178.361V139.319H208.409V97.2544Z" fill="#263238" stroke="#263238" stroke-linecap="round" stroke-linejoin="round"/>
<path d="M191.914 126.542C191.914 126.542 197.668 123.425 199.383 121.709C201.097 119.993 201.411 119.864 202.342 119.864C204.634 119.863 206.922 119.706 209.193 119.393C210.115 119.08 209.663 121.238 209.193 121.727C208.722 122.216 205.772 122.825 205.772 122.825C205.772 122.825 210.751 122.355 210.908 123.913C211.019 124.361 211.005 124.83 210.867 125.269C210.728 125.709 210.471 126.102 210.124 126.404L209.663 126.875C209.663 126.875 210.124 130.14 209.663 131.699C209.202 133.258 208.261 133.728 206.233 134.033C203.526 134.206 200.808 134.051 198.138 133.572C196.58 133.258 191.287 134.346 191.287 134.346L191.914 126.542Z" fill="white" stroke="#263238" stroke-linecap="round" stroke-linejoin="round"/>
<path d="M171.206 85.4192C171.206 85.4192 161.986 87.4394 160.456 88.3711C158.925 89.3028 153.762 126.386 152.674 132.649C151.586 138.913 162.327 140.13 165.582 141.376C168.837 142.621 192.698 144.457 192.698 144.457L193.011 125.14L176.508 120.934L176.351 94.2933" fill="white"/>
<path d="M171.206 85.4192C171.206 85.4192 161.986 87.4394 160.456 88.3711C158.925 89.3028 153.762 126.386 152.674 132.649C151.586 138.913 162.327 140.13 165.582 141.376C168.837 142.621 192.698 144.457 192.698 144.457L193.011 125.14L176.508 120.934L176.351 94.2933" stroke="#263238" stroke-linecap="round" stroke-linejoin="round"/>
<path d="M176.499 120.934C176.499 120.934 170.736 118.286 167.002 119.689C163.268 121.091 160.152 128.258 160.152 128.258" stroke="#263238" stroke-linecap="round" stroke-linejoin="round"/>
<path d="M170.109 119.061C170.109 119.061 164.66 118.748 162.014 119.845C160.386 120.534 158.945 121.6 157.81 122.954" stroke="#263238" stroke-linecap="round" stroke-linejoin="round"/>
<path d="M199.696 95.8523H189.111V99.2838H199.696V95.8523Z" fill="white" stroke="#263238" stroke-linecap="round" stroke-linejoin="round"/>
</svg>
